<svg width="142.66" height="53.97" viewBox="0 0 142.66 53.97" xmlns="http://www.w3.org/2000/svg"><g id="svgGroup" stroke-linecap="round" fill-rule="evenodd" font-size="9pt" stroke="#f0f0f0" stroke-width="0.25mm" fill="#f0f0f0" style="stroke:#ffffff;stroke-width:0.25mm;fill:#f0f0f0"><path d="M 33.95 50.89 L 34.23 47.67 A 2.079 2.079 0 0 1 34.328 47.369 Q 34.463 47.048 34.685 46.9 A 0.512 0.512 0 0 1 34.974 46.81 Q 35.137 46.81 35.322 46.91 A 1.285 1.285 0 0 1 35.42 46.97 A 20.911 20.911 0 0 0 39.037 48.527 A 18.496 18.496 0 0 0 40.355 48.895 A 20.628 20.628 0 0 0 42.979 49.337 Q 44.244 49.471 45.654 49.488 A 34.104 34.104 0 0 0 46.06 49.49 A 15.3 15.3 0 0 0 49.769 49.063 A 11.171 11.171 0 0 0 54.425 46.69 A 9.123 9.123 0 0 0 57.464 41.261 A 13.572 13.572 0 0 0 57.68 38.78 A 5.694 5.694 0 0 0 57.154 36.433 Q 56.806 35.657 56.227 34.881 A 10.376 10.376 0 0 0 56.105 34.72 Q 54.687 32.892 52.276 31.235 A 25.379 25.379 0 0 0 51.73 30.87 Q 49.28 29.33 46.2 27.65 Q 43.12 25.97 40.32 23.975 A 22.525 22.525 0 0 1 36.9 21 A 19.647 19.647 0 0 1 35.63 19.495 A 9.255 9.255 0 0 1 33.741 13.823 A 11.394 11.394 0 0 1 33.74 13.72 A 13.685 13.685 0 0 1 34.09 10.561 A 10.958 10.958 0 0 1 35.14 7.805 Q 36.54 5.25 38.885 3.535 A 17.285 17.285 0 0 1 43.316 1.214 A 19.945 19.945 0 0 1 44.24 0.91 Q 47.25 0 50.4 0 Q 52.842 0 54.78 0.252 A 23.242 23.242 0 0 1 55.23 0.315 A 26.443 26.443 0 0 1 57.56 0.778 A 35.18 35.18 0 0 1 59.78 1.4 Q 60.83 1.75 60.62 2.66 L 60.06 5.39 A 2.078 2.078 0 0 1 59.987 5.685 Q 59.746 6.408 59.058 6.115 A 1.819 1.819 0 0 1 58.871 6.02 A 16.543 16.543 0 0 0 56.698 5.185 A 13.44 13.44 0 0 0 55.055 4.795 A 19.135 19.135 0 0 0 53.591 4.609 Q 52.169 4.48 50.33 4.48 A 17.072 17.072 0 0 0 46.87 4.822 A 15.378 15.378 0 0 0 45.955 5.04 A 11.539 11.539 0 0 0 43.809 5.847 A 9.481 9.481 0 0 0 42.385 6.72 Q 40.88 7.84 39.97 9.52 A 7.358 7.358 0 0 0 39.21 11.737 A 10.005 10.005 0 0 0 39.06 13.51 A 5.386 5.386 0 0 0 39.9 16.38 A 6.924 6.924 0 0 0 40.285 16.94 A 15.816 15.816 0 0 0 42.234 19.055 A 18.922 18.922 0 0 0 43.295 19.95 Q 45.08 21.35 47.145 22.505 A 277.265 277.265 0 0 1 49.114 23.616 A 206.759 206.759 0 0 1 50.89 24.64 Q 53.2 25.97 55.37 27.37 Q 57.54 28.77 59.22 30.52 Q 60.9 32.27 61.95 34.37 Q 63 36.47 63 39.2 A 14.584 14.584 0 0 1 62.595 42.701 A 12.033 12.033 0 0 1 61.565 45.43 Q 60.13 48.16 57.75 50.05 A 17.159 17.159 0 0 1 53.022 52.688 A 19.78 19.78 0 0 1 52.255 52.955 Q 49.14 53.97 45.78 53.97 A 38.708 38.708 0 0 1 43.039 53.878 Q 41.752 53.786 40.609 53.604 A 23.318 23.318 0 0 1 40.285 53.55 A 31.952 31.952 0 0 1 38.058 53.075 Q 36.929 52.795 35.695 52.415 A 54.755 54.755 0 0 1 34.86 52.15 Q 33.74 51.8 33.95 50.89 Z M 72.1 50.89 L 72.38 47.67 A 2.079 2.079 0 0 1 72.478 47.369 Q 72.613 47.048 72.835 46.9 A 0.512 0.512 0 0 1 73.124 46.81 Q 73.287 46.81 73.472 46.91 A 1.285 1.285 0 0 1 73.57 46.97 A 20.911 20.911 0 0 0 77.187 48.527 A 18.496 18.496 0 0 0 78.505 48.895 A 20.628 20.628 0 0 0 81.129 49.337 Q 82.394 49.471 83.804 49.488 A 34.104 34.104 0 0 0 84.21 49.49 A 15.3 15.3 0 0 0 87.919 49.063 A 11.171 11.171 0 0 0 92.575 46.69 A 9.123 9.123 0 0 0 95.614 41.261 A 13.572 13.572 0 0 0 95.83 38.78 A 5.694 5.694 0 0 0 95.304 36.433 Q 94.956 35.657 94.377 34.881 A 10.376 10.376 0 0 0 94.255 34.72 Q 92.837 32.892 90.426 31.235 A 25.379 25.379 0 0 0 89.88 30.87 Q 87.43 29.33 84.35 27.65 Q 81.27 25.97 78.47 23.975 A 22.525 22.525 0 0 1 75.05 21 A 19.647 19.647 0 0 1 73.78 19.495 A 9.255 9.255 0 0 1 71.891 13.823 A 11.394 11.394 0 0 1 71.89 13.72 A 13.685 13.685 0 0 1 72.24 10.561 A 10.958 10.958 0 0 1 73.29 7.805 Q 74.69 5.25 77.035 3.535 A 17.285 17.285 0 0 1 81.466 1.214 A 19.945 19.945 0 0 1 82.39 0.91 Q 85.4 0 88.55 0 Q 90.992 0 92.93 0.252 A 23.242 23.242 0 0 1 93.38 0.315 A 26.443 26.443 0 0 1 95.71 0.778 A 35.18 35.18 0 0 1 97.93 1.4 Q 98.98 1.75 98.77 2.66 L 98.21 5.39 A 2.078 2.078 0 0 1 98.137 5.685 Q 97.896 6.408 97.208 6.115 A 1.819 1.819 0 0 1 97.021 6.02 A 16.543 16.543 0 0 0 94.848 5.185 A 13.44 13.44 0 0 0 93.205 4.795 A 19.135 19.135 0 0 0 91.741 4.609 Q 90.319 4.48 88.48 4.48 A 17.072 17.072 0 0 0 85.02 4.822 A 15.378 15.378 0 0 0 84.105 5.04 A 11.539 11.539 0 0 0 81.959 5.847 A 9.481 9.481 0 0 0 80.535 6.72 Q 79.03 7.84 78.12 9.52 A 7.358 7.358 0 0 0 77.36 11.737 A 10.005 10.005 0 0 0 77.21 13.51 A 5.386 5.386 0 0 0 78.05 16.38 A 6.924 6.924 0 0 0 78.435 16.94 A 15.816 15.816 0 0 0 80.384 19.055 A 18.922 18.922 0 0 0 81.445 19.95 Q 83.23 21.35 85.295 22.505 A 277.265 277.265 0 0 1 87.264 23.616 A 206.759 206.759 0 0 1 89.04 24.64 Q 91.35 25.97 93.52 27.37 Q 95.69 28.77 97.37 30.52 Q 99.05 32.27 100.1 34.37 Q 101.15 36.47 101.15 39.2 A 14.584 14.584 0 0 1 100.745 42.701 A 12.033 12.033 0 0 1 99.715 45.43 Q 98.28 48.16 95.9 50.05 A 17.159 17.159 0 0 1 91.172 52.688 A 19.78 19.78 0 0 1 90.405 52.955 Q 87.29 53.97 83.93 53.97 A 38.708 38.708 0 0 1 81.189 53.878 Q 79.902 53.786 78.759 53.604 A 23.318 23.318 0 0 1 78.435 53.55 A 31.952 31.952 0 0 1 76.208 53.075 Q 75.079 52.795 73.845 52.415 A 54.755 54.755 0 0 1 73.01 52.15 Q 71.89 51.8 72.1 50.89 Z M 5.18 28.42 L 5.18 51.87 A 1.411 1.411 0 0 1 5.132 52.258 Q 5.007 52.693 4.563 52.808 A 1.444 1.444 0 0 1 4.2 52.85 L 0.98 52.85 A 1.411 1.411 0 0 1 0.592 52.801 Q 0.157 52.677 0.042 52.233 A 1.444 1.444 0 0 1 0 51.87 L 0 3.08 A 15.112 15.112 0 0 1 0.009 2.548 Q 0.046 1.494 0.245 1.295 Q 0.484 1.056 1.951 1.05 A 18.728 18.728 0 0 1 2.03 1.05 L 25.41 1.05 A 1.411 1.411 0 0 1 25.798 1.099 Q 26.233 1.223 26.348 1.667 A 1.444 1.444 0 0 1 26.39 2.03 L 26.39 4.41 A 1.411 1.411 0 0 1 26.342 4.798 Q 26.217 5.233 25.773 5.348 A 1.444 1.444 0 0 1 25.41 5.39 L 5.18 5.39 L 5.18 23.94 L 24.43 23.94 A 1.411 1.411 0 0 1 24.818 23.989 Q 25.253 24.113 25.368 24.557 A 1.444 1.444 0 0 1 25.41 24.92 L 25.41 27.44 A 1.411 1.411 0 0 1 25.362 27.828 Q 25.237 28.263 24.793 28.378 A 1.444 1.444 0 0 1 24.43 28.42 L 5.18 28.42 Z M 141.68 5.39 L 127.12 5.39 L 127.12 51.87 A 1.411 1.411 0 0 1 127.072 52.258 Q 126.947 52.693 126.503 52.808 A 1.444 1.444 0 0 1 126.14 52.85 L 122.92 52.85 A 1.411 1.411 0 0 1 122.532 52.801 Q 122.097 52.677 121.982 52.233 A 1.444 1.444 0 0 1 121.94 51.87 L 121.94 5.39 L 107.52 5.39 A 1.411 1.411 0 0 1 107.132 5.341 Q 106.697 5.217 106.582 4.773 A 1.444 1.444 0 0 1 106.54 4.41 L 106.54 2.03 A 1.411 1.411 0 0 1 106.589 1.642 Q 106.713 1.207 107.157 1.092 A 1.444 1.444 0 0 1 107.52 1.05 L 141.68 1.05 A 1.411 1.411 0 0 1 142.068 1.099 Q 142.503 1.223 142.618 1.667 A 1.444 1.444 0 0 1 142.66 2.03 L 142.66 4.41 A 1.411 1.411 0 0 1 142.612 4.798 Q 142.487 5.233 142.043 5.348 A 1.444 1.444 0 0 1 141.68 5.39 Z" vector-effect="non-scaling-stroke"/></g></svg>